<?xml version="1.0" encoding="UTF-8"?>
<svg id="Capa_2" data-name="Capa 2" xmlns="http://www.w3.org/2000/svg" viewBox="0 0 388.88 177.6">
  <defs>
    <style>
      .cls-1 {
        fill: #fff;
      }
    </style>
  </defs>
  <g id="Capa_1-2" data-name="Capa 1">
    <g>
      <path class="cls-1" d="M256.7,26.18c46.72,45.86,27.94,126.49-34.3,146.83-67.56,22.07-131.44-38.91-113.11-107.45C126.6.79,208.89-20.74,256.7,26.18ZM223.66,54.03c-25.1-21.63-64.18-8.65-73.11,22.6-11.02,38.53,31.33,73.15,66.34,52.19,27.45-16.44,31.18-53.75,6.77-74.78Z"/>
      <path class="cls-1" d="M301,.06c27.39-1.05,54.1,12.47,70.52,34.02,15.63,20.51,20.8,46.99,15.15,72.17-8.62,38.39-44.35,66.89-83.78,66.54l-.44-40.77c.41-1.35,4.96-1.12,6.21-1.36,23.09-4.46,39.69-23.74,38.14-47.79-1.45-22.57-22.25-41.83-44.86-41.27L301,.06Z"/>
    </g>
    <path class="cls-1" d="M87.89.06C60.5-.99,33.79,12.53,17.37,34.08,1.73,54.59-3.43,81.07,2.22,106.25c8.62,38.39,44.35,66.89,83.78,66.54l.44-40.77c-.41-1.35-4.96-1.12-6.21-1.36-23.09-4.46-39.69-23.74-38.14-47.79,1.45-22.57,22.25-41.83,44.86-41.27L87.89.06Z"/>
  </g>
</svg>